<svg viewBox="0 0 500 300" xmlns="http://www.w3.org/2000/svg">
<rect x="10" y="0" width="480" height="240" stroke="silver" fill="none"/>
<line x1="10" y1="120" x2="490" y2="120" stroke="black"/>
<polyline points="10,122 11,121 12,124 13,121 14,121 15,124 16,121 17,120 18,123 19,124 20,120 21,123 22,122 23,120 24,123 25,122 26,127 27,124 28,120 29,121 30,124 31,125 32,120 33,123 34,125 35,120 36,122 37,125 38,120 39,121 40,124 41,123 42,120 43,123 44,123 45,121 46,125 47,120 48,122 49,125 50,120 51,122 52,126 53,120 54,121 55,125 56,120 57,125 58,122 59,121 60,124 61,121 62,121 63,125 64,120 65,123 66,120 67,122 68,124 69,124 70,120 71,126 72,120 73,124 74,120 75,117 76,120 77,124 78,119 79,124 80,125 81,121 82,124 83,126 84,120 85,125 86,120 87,125 88,120 89,125 90,124 91,120 92,123 93,120 94,125 95,120 96,122 97,125 98,120 99,122 100,125 101,120 102,124 103,120 104,127 105,120 106,125 107,120 108,124 109,127 110,120 111,124 112,121 113,121 114,124 115,120 116,125 117,120 118,125 119,123 120,122 121,126 122,122 123,120 124,123 125,125 126,120 127,124 128,122 129,120 130,120 131,123 132,120 133,127 134,125 135,124 136,120 137,122 138,126 139,123 140,120 141,121 142,125 143,123 144,122 145,124 146,123 147,120 148,121 149,121 150,121 151,122 152,123 153,123 154,123 155,123 156,123 157,125 158,125 159,126 160,124 161,121 162,120 163,120 164,124 165,122 166,121 167,123 168,121 169,121 170,124 171,123 172,121 173,121 174,123 175,123 176,121 177,121 178,123 179,128 180,124 181,122 182,122 183,120 184,122 185,122 186,123 187,122 188,119 189,102 190,113 191,116 192,98 193,116 194,114 195,115 196,114 197,115 198,115 199,116 200,115 201,116 202,113 203,117 204,114 205,115 206,115 207,116 208,118 209,116 210,114 211,113 212,114 213,114 214,115 215,115 216,105 217,124 218,115 219,116 220,115 221,115 222,114 223,114 224,112 225,115 226,115 227,113 228,114 229,116 230,116 231,116 232,116 233,116 234,44 235,105 236,109 237,110 238,108 239,108 240,108 241,108 242,110 243,133 244,113 245,112 246,113 247,114 248,112 249,101 250,110 251,98 252,117 253,113 254,111 255,115 256,106 257,117 258,111 259,110 260,111 261,112 262,113 263,115 264,107 265,108 266,180 267,112 268,120 269,117 270,117 271,50 272,108 273,106 274,109 275,111 276,112 277,106 278,118 279,113 280,109 281,109 282,112 283,108 284,116 285,176 286,121 287,111 288,119 289,112 290,116 291,53 292,111 293,110 294,108 295,110 296,112 297,114 298,111 299,179 300,121 301,119 302,118 303,114 304,114 305,114 306,114 307,119 308,115 309,116 310,116 311,117 312,117 313,50 314,102 315,115 316,113 317,108 318,175 319,117 320,116 321,118 322,114 323,116 324,117 325,118 326,117 327,113 328,116 329,116 330,114 331,116 332,116 333,114 334,112 335,113 336,112 337,110 338,111 339,114 340,116 341,115 342,111 343,111 344,111 345,112 346,113 347,116 348,115 349,112 350,112 351,113 352,112 353,115 354,114 355,117 356,115 357,117 358,115 359,112 360,113 361,117 362,114 363,112 364,111 365,114 366,107 367,116 368,120 369,116 370,111 371,116 372,120 373,118 374,112 375,114 376,114 377,110 378,110 379,120 380,112 381,114 382,109 383,118 384,114 385,112 386,115 387,111 388,117 389,112 390,111 391,132 392,120 393,124 394,124 395,120 396,127 397,115 398,125 399,118 400,125 401,120 402,125 403,120 404,123 405,121 406,125 407,120 408,121 409,120 410,125 411,120 412,125 413,119 414,122 415,126 416,120 417,124 418,120 419,121 420,123 421,120 422,123 423,121 424,123 425,121 426,121 427,126 428,121 429,121 430,126 431,120 432,124 433,126 434,120 435,123 436,127 437,120 438,125 439,125 440,120 441,124 442,121 443,98 444,113 445,118 446,117 447,113 448,116 449,117 450,117 451,106 452,123 453,115 454,117 455,111 456,115 457,119 458,116 459,113 460,117 461,119 462,111 463,117 464,118 465,113 466,114 467,118 468,114 469,116 470,119 471,115 472,111 473,120 474,113 475,118 476,116 477,116 478,115 479,116 480,115 481,114 482,118 483,113 484,120 485,113 486,118 487,111 488,114 489,113 " fill="none" stroke="red"/>
<polyline points="10,131 11,129 12,132 13,129 14,129 15,132 16,130 17,129 18,131 19,132 20,128 21,131 22,129 23,128 24,130 25,129 26,132 27,132 28,129 29,129 30,131 31,132 32,127 33,130 34,132 35,128 36,129 37,132 38,128 39,128 40,131 41,131 42,127 43,129 44,130 45,128 46,132 47,128 48,129 49,132 50,127 51,129 52,132 53,127 54,128 55,132 56,128 57,131 58,130 59,129 60,131 61,129 62,129 63,131 64,128 65,130 66,127 67,128 68,130 69,131 70,128 71,132 72,128 73,131 74,128 75,124 76,124 77,127 78,120 79,123 80,125 81,120 82,123 83,126 84,123 85,126 86,123 87,127 88,123 89,126 90,127 91,123 92,125 93,123 94,127 95,123 96,125 97,127 98,123 99,124 100,127 101,123 102,126 103,120 104,126 105,123 106,127 107,120 108,124 109,126 110,123 111,126 112,124 113,123 114,126 115,123 116,126 117,120 118,125 119,124 120,123 121,127 122,126 123,124 124,125 125,128 126,124 127,128 128,126 129,124 130,123 131,124 132,120 133,126 134,127 135,128 136,124 137,125 138,129 139,128 140,125 141,126 142,128 143,128 144,128 145,129 146,129 147,127 148,126 149,126 150,126 151,126 152,127 153,127 154,127 155,127 156,128 157,129 158,130 159,132 160,132 161,129 162,127 163,127 164,130 165,129 166,128 167,130 168,128 169,128 170,130 171,130 172,129 173,129 174,130 175,131 176,129 177,129 178,130 179,135 180,134 181,133 182,133 183,131 184,133 185,133 186,133 187,133 188,130 189,120 190,120 191,120 192,105 193,107 194,104 195,105 196,103 197,104 198,104 199,105 200,105 201,105 202,102 203,106 204,103 205,104 206,105 207,105 208,107 209,107 210,105 211,105 212,104 213,104 214,105 215,105 216,97 217,109 218,107 219,108 220,107 221,107 222,106 223,105 224,103 225,105 226,105 227,104 228,104 229,105 230,106 231,106 232,106 233,107 234,43 235,40 236,40 237,42 238,41 239,40 240,40 241,39 242,41 243,63 244,63 245,63 246,64 247,65 248,65 249,55 250,54 251,41 252,49 253,51 254,51 255,54 256,48 257,55 258,54 259,53 260,53 261,53 262,56 263,58 264,54 265,51 266,119 267,112 268,120 269,120 270,120 271,59 272,58 273,53 274,52 275,52 276,53 277,49 278,57 279,57 280,56 281,53 282,55 283,52 284,57 285,119 286,120 287,113 288,120 289,114 290,113 291,56 292,56 293,57 294,53 295,53 296,53 297,55 298,56 299,119 300,120 301,120 302,120 303,120 304,120 305,120 306,120 307,120 308,120 309,120 310,120 311,120 312,120 313,61 314,55 315,58 316,59 317,57 318,119 319,120 320,120 321,120 322,120 323,120 324,120 325,120 326,120 327,120 328,120 329,120 330,120 331,120 332,120 333,120 334,120 335,120 336,120 337,120 338,120 339,120 340,120 341,120 342,120 343,120 344,120 345,120 346,120 347,120 348,120 349,120 350,120 351,120 352,120 353,120 354,120 355,120 356,120 357,120 358,120 359,120 360,120 361,120 362,120 363,120 364,120 365,120 366,113 367,113 368,120 369,120 370,114 371,114 372,120 373,120 374,120 375,120 376,120 377,120 378,114 379,120 380,120 381,120 382,112 383,120 384,120 385,120 386,120 387,114 388,120 389,120 390,114 391,124 392,120 393,124 394,124 395,120 396,126 397,120 398,125 399,120 400,125 401,120 402,124 403,120 404,123 405,120 406,124 407,120 408,120 409,120 410,124 411,120 412,125 413,120 414,120 415,125 416,120 417,124 418,120 419,120 420,123 421,120 422,123 423,120 424,123 425,120 426,120 427,125 428,120 429,120 430,126 431,120 432,124 433,126 434,120 435,123 436,127 437,120 438,124 439,125 440,120 441,124 442,120 443,105 444,105 445,108 446,107 447,105 448,106 449,107 450,108 451,99 452,110 453,107 454,109 455,105 456,105 457,108 458,107 459,104 460,106 461,108 462,103 463,106 464,107 465,104 466,104 467,106 468,103 469,104 470,107 471,105 472,100 473,105 474,100 475,105 476,105 477,104 478,103 479,105 480,104 481,101 482,105 483,101 484,107 485,103 486,106 487,101 488,101 489,101 " fill="none" stroke="blue"/>
<polyline points="10,109 11,109 12,110 13,109 14,110 15,110 16,109 17,109 18,110 19,110 20,109 21,110 22,110 23,110 24,111 25,111 26,112 27,109 28,108 29,110 30,111 31,110 32,110 33,111 34,111 35,110 36,110 37,111 38,110 39,111 40,111 41,111 42,111 43,112 44,112 45,111 46,111 47,110 48,111 49,111 50,110 51,111 52,112 53,110 54,111 55,111 56,110 57,111 58,110 59,110 60,111 61,111 62,110 63,111 64,110 65,111 66,111 67,112 68,111 69,111 70,110 71,111 72,110 73,111 74,110 75,111 76,114 77,115 78,115 79,119 80,118 81,117 82,119 83,119 84,116 85,117 86,115 87,117 88,115 89,116 90,115 91,115 92,116 93,116 94,116 95,115 96,116 97,116 98,115 99,116 100,117 101,115 102,116 103,116 104,119 105,116 106,116 107,115 108,119 109,119 110,115 111,116 112,116 113,117 114,117 115,115 116,117 117,117 118,119 119,117 120,117 121,117 122,115 123,115 124,116 125,116 126,114 127,115 128,114 129,114 130,115 131,117 132,117 133,119 134,116 135,115 136,114 137,115 138,115 139,114 140,113 141,113 142,114 143,113 144,113 145,114 146,113 147,112 148,113 149,114 150,113 151,114 152,114 153,114 154,114 155,114 156,114 157,114 158,112 159,111 160,110 161,110 162,110 163,111 164,112 165,111 166,111 167,111 168,111 169,111 170,111 171,111 172,111 173,111 174,111 175,111 176,110 177,110 178,111 179,111 180,107 181,106 182,106 183,106 184,107 185,107 186,107 187,106 188,106 189,108 190,117 191,119 192,120 193,134 194,135 195,135 196,135 197,136 198,135 199,135 200,135 201,136 202,135 203,136 204,135 205,136 206,136 207,136 208,136 209,134 210,133 211,133 212,135 213,135 214,135 215,134 216,134 217,140 218,133 219,132 220,132 221,132 222,133 223,134 224,134 225,135 226,135 227,135 228,135 229,136 230,135 231,135 232,134 233,134 234,134 235,198 236,200 237,200 238,199 239,200 240,200 241,202 242,201 243,200 244,179 245,178 246,178 247,178 248,176 249,177 250,187 251,189 252,199 253,193 254,190 255,190 256,189 257,192 258,188 259,188 260,188 261,189 262,188 263,187 264,183 265,188 266,189 267,124 268,127 269,123 270,120 271,122 272,181 273,183 274,188 275,189 276,189 277,188 278,191 279,186 280,184 281,186 282,187 283,187 284,189 285,183 286,124 287,122 288,126 289,122 290,126 291,128 292,185 293,183 294,185 295,188 296,189 297,189 298,186 299,185 300,124 301,120 302,121 303,120 304,120 305,120 306,120 307,120 308,120 309,120 310,120 311,120 312,120 313,120 314,178 315,187 316,184 317,181 318,183 319,124 320,122 321,120 322,120 323,120 324,120 325,120 326,120 327,120 328,120 329,120 330,120 331,120 332,120 333,120 334,120 335,120 336,120 337,120 338,120 339,120 340,120 341,120 342,120 343,120 344,120 345,120 346,120 347,119 348,120 349,119 350,120 351,120 352,120 353,120 354,120 355,120 356,120 357,120 358,119 359,120 360,120 361,119 362,119 363,120 364,120 365,119 366,119 367,127 368,127 369,122 370,122 371,126 372,127 373,122 374,121 375,120 376,120 377,120 378,120 379,125 380,121 381,120 382,121 383,127 384,123 385,120 386,120 387,120 388,126 389,121 390,121 391,126 392,119 393,119 394,118 395,117 396,119 397,117 398,119 399,118 400,118 401,118 402,119 403,118 404,119 405,118 406,119 407,118 408,119 409,119 410,119 411,118 412,118 413,118 414,118 415,119 416,118 417,118 418,118 419,118 420,119 421,118 422,119 423,118 424,118 425,118 426,118 427,120 428,118 429,118 430,119 431,118 432,119 433,118 434,117 435,119 436,118 437,117 438,119 439,118 440,117 441,118 442,118 443,119 444,133 445,135 446,134 447,133 448,134 449,134 450,133 451,133 452,139 453,132 454,132 455,131 456,135 457,135 458,133 459,134 460,136 461,136 462,133 463,136 464,135 465,134 466,135 467,137 468,136 469,137 470,136 471,135 472,136 473,140 474,138 475,138 476,137 477,136 478,137 479,136 480,136 481,138 482,138 483,137 484,137 485,135 486,136 487,136 488,137 489,137 " fill="none" stroke="green"/>
</svg>
